<svg width="800" height="533" version="1.1" xmlns="http://www.w3.org/2000/svg" desc="Created with imagetracer.js version 1.2.6" ><path fill="rgb(54,88,39)" stroke="rgb(54,88,39)" stroke-width="1" opacity="1" d="M 799.5 0 L 800 532.5 L 799 532.5 L 799.5 0 Z " /><path fill="rgb(54,88,39)" stroke="rgb(54,88,39)" stroke-width="1" opacity="1" d="M 207.5 185 L 211 187.5 L 205 199.5 L 207 198.5 L 210.5 194 L 217.5 191 L 219 195 Q 212.3 196.4 208 201.5 L 209.5 202 Q 212 198.8 218 200 L 216.5 204 L 211.5 204 L 204 207 L 207 212.5 L 207 219.5 L 200 232 L 185.5 232 L 185 229.5 L 184 228.5 L 184 220.5 Q 185.4 211.9 190.5 207 L 197 206 L 196 202.5 L 197 197.5 L 193 187.5 L 195.5 186 L 199 188.5 L 200.5 199 Q 202.3 190.3 207.5 185 Z " /><path fill="rgb(54,88,39)" stroke="rgb(54,88,39)" stroke-width="1" opacity="1" d="M 144.5 187 L 151.5 187 Q 159.9 190.1 165 196.5 Q 176.6 209.7 179 231 L 146.5 231 L 144 230 L 138 213.5 L 136 198.5 L 139 190 L 144.5 187 Z M 145 197 L 145 200 Q 151 201 154 199 L 154 197 L 145 197 Z M 159 206 L 150 208 Q 144 206 145 210 L 160 210 L 163 208 Q 164 204 159 206 Z M 152 219 L 150 222 L 160 222 L 160 220 Q 158 218 152 219 Z M 165 220 L 164 221 Q 160 220 161 223 L 168 224 L 169 222 Q 168 219 165 220 Z " /><path fill="rgb(54,88,39)" stroke="rgb(54,88,39)" stroke-width="1" opacity="1" d="M 188 194 Q 191.8 193 193 195.5 Q 194.7 200.3 190.5 199 Q 187.3 197.8 188 194 Z " /><path fill="rgb(54,88,39)" stroke="rgb(54,88,39)" stroke-width="1" opacity="1" d="M 243.5 200 Q 246.1 199.2 245 202.5 L 239.5 211 L 228.5 217 L 225.5 216 L 218 221.5 L 218.5 223 Q 221.8 217 232 219 L 234.5 215 Q 238.2 211.7 246.5 213 L 252 216.5 L 253 224.5 L 247.5 233 L 228.5 233 L 227.5 232 L 209 231.5 Q 211.3 220.3 218.5 214 Q 221.1 210.1 228.5 211 L 231.5 212 L 236 204 L 243.5 200 Z " /><path fill="rgb(54,88,39)" stroke="rgb(54,88,39)" stroke-width="1" opacity="1" d="M 98.5 203 L 121.5 203 L 127 206.5 L 136 231.5 L 138.5 235 L 141.5 236 L 143.5 236 L 245.5 237 L 252 240.5 L 253 245.5 L 251 248.5 L 247 263.5 L 238 287.5 L 238 290.5 L 233.5 296 Q 228.8 294.8 227.5 297 L 152.5 297 L 149 300.5 L 147 305 L 235.5 305 L 238 307.5 L 239 309.5 L 236.5 314 L 233.5 315 L 230.5 314 L 228.5 315 L 211.5 315 L 209.5 315 L 176.5 315 L 172.5 314 L 171.5 315 L 144.5 315 L 137 310.5 L 136 302.5 L 144 290.5 L 118 217.5 L 115.5 215 L 98.5 215 L 96 214 Q 94.4 211.9 95 206.5 L 98.5 203 Z M 147 251 L 147 254 L 150 255 L 233 255 L 234 254 Q 236 255 235 253 L 234 251 L 147 251 Z M 153 266 L 153 269 L 155 270 L 228 270 L 229 268 L 228 266 L 153 266 Z M 161 280 L 158 281 L 160 284 L 222 284 L 223 283 L 221 281 L 219 281 L 217 280 L 161 280 Z " /><path fill="rgb(54,88,39)" stroke="rgb(54,88,39)" stroke-width="1" opacity="1" d="M 403.5 224 Q 411.1 222.9 413 227.5 L 414 233.5 L 410.5 238 L 404.5 239 L 399 234.5 L 398 230.5 L 401.5 225 L 403.5 224 Z " /><path fill="rgb(54,88,39)" stroke="rgb(54,88,39)" stroke-width="1" opacity="1" d="M 423 225 L 435.5 225 L 436 225.5 L 436 290 L 423.5 290 L 423 289.5 L 423 225 Z " /><path fill="rgb(54,88,39)" stroke="rgb(54,88,39)" stroke-width="1" opacity="1" d="M 525.5 225 L 535.5 225 L 549 229 L 548.5 242 Q 541.7 234.8 525.5 237 Q 517.6 239.1 514 245.5 Q 509.8 250.8 510 260.5 L 512 268.5 L 515 274 L 520.5 278 L 526.5 280 L 537.5 280 L 550 275 L 550 286.5 L 548.5 287 L 539.5 291 L 527.5 292 L 514.5 289 L 502 279.5 Q 494.8 270.2 496 252.5 Q 498.5 240 506.5 233 L 514.5 228 L 525.5 225 Z " /><path fill="rgb(54,88,39)" stroke="rgb(54,88,39)" stroke-width="1" opacity="1" d="M 286 226 L 312.5 226 Q 314 228.5 319.5 227 Q 331.8 229.7 338 238.5 L 343 248.5 L 344 261.5 L 342 270.5 L 334.5 282 Q 327.9 287.9 317.5 290 L 286 290 L 286 226 Z M 300 238 L 300 240 L 299 241 L 299 279 L 314 279 L 323 275 L 328 268 L 330 260 L 327 247 Q 321 235 300 238 Z " /><path fill="rgb(54,88,39)" stroke="rgb(54,88,39)" stroke-width="1" opacity="1" d="M 659.5 231 L 661 231.5 L 661 245 L 671.5 245 L 673 248.5 Q 674.3 253.8 671.5 255 L 661 255 L 661 276.5 L 664.5 281 L 673 280 L 673 288.5 L 671.5 290 L 664.5 292 Q 663 289.5 657.5 291 L 650 285.5 L 648 279.5 L 648 255 L 640 255 L 640 245 L 648 245 L 648 234.5 L 649.5 233 L 659.5 231 Z " /><path fill="rgb(54,88,39)" stroke="rgb(54,88,39)" stroke-width="1" opacity="1" d="M 363.5 244 Q 382.1 241.4 388 251.5 L 391 260.5 L 391 267.5 L 390 271.5 L 391 272.5 L 391 290 L 379.5 290 L 379 288.5 L 377.5 285 Q 373.3 291.3 363.5 292 L 354.5 289 L 351 285.5 Q 347.8 282.2 349 274.5 Q 350.3 268.8 354.5 266 L 365.5 262 L 376.5 262 L 378 260.5 L 376 255 L 367.5 253 L 353 258 L 353 248.5 L 354.5 248 L 363.5 244 Z M 370 270 L 362 275 Q 361 281 366 282 L 374 281 L 378 275 L 378 270 L 370 270 Z " /><path fill="rgb(54,88,39)" stroke="rgb(54,88,39)" stroke-width="1" opacity="1" d="M 569.5 244 Q 587.7 241.3 594 250.5 L 597 256.5 L 597 290 L 586.5 290 L 585 288.5 L 584.5 285 L 576.5 291 Q 571 289.5 569.5 292 Q 561 290.5 557 284.5 Q 554.3 280.7 556 272.5 L 561.5 266 Q 569.7 260.4 584 262 Q 585.3 255.6 580.5 254 L 574.5 253 L 560 258 L 560 248.5 L 561.5 247 L 569.5 244 Z M 577 270 L 572 272 Q 568 273 569 280 L 573 282 L 579 282 L 582 280 L 584 277 L 584 270 L 577 270 Z " /><path fill="rgb(54,88,39)" stroke="rgb(54,88,39)" stroke-width="1" opacity="1" d="M 628.5 244 Q 634.6 243.3 637 245 L 637 256.5 L 635.5 257 L 634.5 256 L 626.5 256 L 621 260.5 L 620 262.5 L 620 290 L 606.5 290 L 606 289.5 L 606 245 L 617.5 245 L 618 247.5 L 619.5 252 L 624.5 246 L 628.5 244 Z " /><path fill="rgb(54,88,39)" stroke="rgb(54,88,39)" stroke-width="1" opacity="1" d="M 400 245 L 412.5 245 L 413 245.5 L 413 290 L 400.5 290 L 400 289.5 L 400 245 Z " /><path fill="rgb(54,88,39)" stroke="rgb(54,88,39)" stroke-width="1" opacity="1" d="M 442 245 L 456.5 245 L 457 247.5 L 468.5 274 L 479.5 245 L 491.5 245 L 492 247.5 L 474 291.5 Q 470.6 302.1 462.5 308 Q 457.8 311.3 448.5 310 L 445 309 L 445 298.5 L 446.5 298 Q 448.2 300.8 453.5 300 L 459 295.5 Q 461.6 292.6 461 286.5 L 442 245 Z " /><path fill="rgb(54,88,39)" stroke="rgb(54,88,39)" stroke-width="1" opacity="1" d="M 161.5 318 Q 172 316.9 175 323.5 L 176 332.5 L 171.5 339 Q 168.5 342 161.5 341 L 155 335.5 Q 152.3 333.2 153 327.5 L 157.5 320 L 161.5 318 Z M 165 325 L 163 326 Q 160 327 161 332 Q 162 334 167 333 Q 170 333 169 329 L 165 325 Z " /><path fill="rgb(54,88,39)" stroke="rgb(54,88,39)" stroke-width="1" opacity="1" d="M 215.5 318 Q 226.1 316.9 229 323.5 L 231 330.5 Q 229.5 337 224.5 340 L 216.5 341 L 209 335.5 L 207 328.5 L 210 321 L 215.5 318 Z M 219 325 L 217 326 Q 214 327 215 331 Q 216 334 222 333 Q 224 332 223 328 L 219 325 Z " /><path fill="rgb(253,253,253)" stroke="rgb(253,253,253)" stroke-width="1" opacity="1" d="M 0 0 L 799 0 L 799 533 L 0 533 L 0 0 Z M 208 185 Q 202 190 201 199 L 199 189 L 196 186 L 193 188 L 197 198 L 196 203 L 197 206 L 191 207 Q 185 212 184 221 L 184 229 L 185 230 L 186 232 L 200 232 L 207 220 L 207 213 L 204 207 L 212 204 L 217 204 L 218 200 Q 212 199 210 202 L 208 202 Q 212 196 219 195 L 218 191 L 211 194 L 207 199 L 205 200 L 211 188 L 208 185 Z M 145 187 L 139 190 L 136 199 L 138 214 L 144 230 L 147 231 L 179 231 Q 177 210 165 197 Q 160 190 152 187 L 145 187 Z M 188 194 Q 187 198 191 199 Q 195 200 193 196 Q 192 193 188 194 Z M 244 200 L 236 204 L 232 212 L 229 211 Q 221 210 219 214 Q 211 220 209 232 L 228 232 L 229 233 L 248 233 L 253 225 L 252 217 L 247 213 Q 238 212 235 215 L 232 219 Q 222 217 219 223 L 218 222 L 226 216 L 229 217 L 240 211 L 245 203 Q 246 199 244 200 Z M 99 203 L 95 207 Q 94 212 96 214 L 99 215 L 116 215 L 118 218 L 144 291 L 136 303 L 137 311 L 145 315 L 172 315 L 173 314 L 177 315 L 210 315 L 212 315 L 229 315 L 231 314 L 234 315 L 237 314 L 239 310 L 238 308 L 236 305 L 147 305 L 149 301 L 153 297 L 228 297 Q 229 295 234 296 L 238 291 L 238 288 L 247 264 L 251 249 L 253 246 L 252 241 L 246 237 L 144 236 L 142 236 L 139 235 L 136 232 L 127 207 L 122 203 L 99 203 Z M 404 224 L 402 225 L 398 231 L 399 235 L 405 239 L 411 238 L 414 234 L 413 228 Q 411 223 404 224 Z M 423 225 L 423 290 L 424 290 L 436 290 L 436 226 L 436 225 L 423 225 Z M 526 225 L 515 228 L 507 233 Q 499 240 496 253 Q 495 270 502 280 L 515 289 L 528 292 L 540 291 L 549 287 L 550 287 L 550 275 L 538 280 L 527 280 L 521 278 L 515 274 L 512 269 L 510 261 Q 510 251 514 246 Q 518 239 526 237 Q 542 235 549 242 L 549 229 L 536 225 L 526 225 Z M 286 226 L 286 290 L 318 290 Q 328 288 335 282 L 342 271 L 344 262 L 343 249 L 338 239 Q 332 230 320 227 Q 314 229 313 226 L 286 226 Z M 660 231 L 650 233 L 648 235 L 648 245 L 640 245 L 640 255 L 648 255 L 648 280 L 650 286 L 658 291 Q 663 290 665 292 L 672 290 L 673 289 L 673 280 L 665 281 L 661 277 L 661 255 L 672 255 Q 674 254 673 249 L 672 245 L 661 245 L 661 232 L 660 231 Z M 364 244 L 355 248 L 353 249 L 353 258 L 368 253 L 376 255 L 378 261 L 377 262 L 366 262 L 355 266 Q 350 269 349 275 Q 348 282 351 286 L 355 289 L 364 292 Q 373 291 378 285 L 379 289 L 380 290 L 391 290 L 391 273 L 390 272 L 391 268 L 391 261 L 388 252 Q 382 241 364 244 Z M 570 244 L 562 247 L 560 249 L 560 258 L 575 253 L 581 254 Q 585 256 584 262 Q 570 260 562 266 L 556 273 Q 554 281 557 285 Q 561 291 570 292 Q 571 290 577 291 L 585 285 L 585 289 L 587 290 L 597 290 L 597 257 L 594 251 Q 588 241 570 244 Z M 629 244 L 625 246 L 620 252 L 618 248 L 618 245 L 606 245 L 606 290 L 607 290 L 620 290 L 620 263 L 621 261 L 627 256 L 635 256 L 636 257 L 637 257 L 637 245 Q 635 243 629 244 Z M 400 245 L 400 290 L 401 290 L 413 290 L 413 246 L 413 245 L 400 245 Z M 442 245 L 461 287 Q 462 293 459 296 L 454 300 Q 448 301 447 298 L 445 299 L 445 309 L 449 310 Q 458 311 463 308 Q 471 302 474 292 L 492 248 L 492 245 L 480 245 L 469 274 L 457 248 L 457 245 L 442 245 Z M 162 318 L 158 320 L 153 328 Q 152 333 155 336 L 162 341 Q 169 342 172 339 L 176 333 L 175 324 Q 172 317 162 318 Z M 216 318 L 210 321 L 207 329 L 209 336 L 217 341 L 225 340 Q 229 337 231 331 L 229 324 Q 226 317 216 318 Z " /><path fill="rgb(253,253,253)" stroke="rgb(253,253,253)" stroke-width="1" opacity="1" d="M 145 197 L 153.5 197 L 154 199 Q 151.2 200.9 145 200 L 145 197 Z " /><path fill="rgb(253,253,253)" stroke="rgb(253,253,253)" stroke-width="1" opacity="1" d="M 158.5 206 Q 163.9 204.1 163 207.5 L 159.5 210 L 145 210 Q 143.7 206.3 149.5 208 L 158.5 206 Z " /><path fill="rgb(253,253,253)" stroke="rgb(253,253,253)" stroke-width="1" opacity="1" d="M 151.5 219 Q 157.6 218.3 160 220 L 159.5 222 L 150 222 L 151.5 219 Z " /><path fill="rgb(253,253,253)" stroke="rgb(253,253,253)" stroke-width="1" opacity="1" d="M 164.5 220 Q 168.3 219.3 169 221.5 L 167.5 224 L 161 223 Q 159.8 220 163.5 221 L 164.5 220 Z " /><path fill="rgb(253,253,253)" stroke="rgb(253,253,253)" stroke-width="1" opacity="1" d="M 299.5 238 Q 320.5 235 327 246.5 L 330 259.5 L 328 267.5 L 322.5 275 L 313.5 279 L 299 279 L 299 240.5 L 300 239.5 L 299.5 238 Z " /><path fill="rgb(253,253,253)" stroke="rgb(253,253,253)" stroke-width="1" opacity="1" d="M 147 251 L 233.5 251 L 235 252.5 Q 235.8 254.8 233.5 254 L 232.5 255 L 149.5 255 L 147 254 L 147 251 Z " /><path fill="rgb(253,253,253)" stroke="rgb(253,253,253)" stroke-width="1" opacity="1" d="M 153 266 L 227.5 266 L 229 267.5 L 227.5 270 L 154.5 270 L 153 268.5 L 153 266 Z " /><path fill="rgb(253,253,253)" stroke="rgb(253,253,253)" stroke-width="1" opacity="1" d="M 369.5 270 L 378 270 L 378 274.5 L 373.5 281 L 365.5 282 Q 361 281 362 274.5 L 369.5 270 Z " /><path fill="rgb(253,253,253)" stroke="rgb(253,253,253)" stroke-width="1" opacity="1" d="M 576.5 270 L 584 270 L 584 276.5 L 582 280 L 578.5 282 L 572.5 282 L 569 279.5 Q 567.8 273.3 571.5 272 L 576.5 270 Z " /><path fill="rgb(253,253,253)" stroke="rgb(253,253,253)" stroke-width="1" opacity="1" d="M 160.5 280 L 216.5 280 L 218.5 281 L 220.5 281 L 223 282.5 L 221.5 284 L 159.5 284 L 158 281 L 160.5 280 Z " /><path fill="rgb(253,253,253)" stroke="rgb(253,253,253)" stroke-width="1" opacity="1" d="M 164.5 325 L 169 328.5 Q 169.5 332.5 166.5 333 Q 162 334 161 331.5 Q 160 327 162.5 326 L 164.5 325 Z " /><path fill="rgb(253,253,253)" stroke="rgb(253,253,253)" stroke-width="1" opacity="1" d="M 218.5 325 L 223 327.5 Q 224 332 221.5 333 Q 216 334 215 330.5 Q 214.3 326.8 216.5 326 L 218.5 325 Z " /></svg>